<svg xmlns="http://www.w3.org/2000/svg" viewBox="0 0 216 300">
  <path d="M 173.0,33.0 C 169.3,32.8 155.5,36.0 149.0,38.0 C 142.5,40.0 137.3,41.8 134.0,45.0 C 130.7,48.2 130.5,52.0 129.0,57.0 C 127.5,62.0 126.0,62.8 125.0,75.0 C 124.0,87.2 124.3,118.8 123.0,130.0 C 121.7,141.2 119.2,138.8 117.0,142.0 C 114.8,145.2 116.0,145.3 110.0,149.0 C 104.0,152.7 87.5,159.8 81.0,164.0 C 74.5,168.2 73.2,170.5 71.0,174.0 C 68.8,177.5 69.8,181.2 68.0,185.0 C 66.2,188.8 61.2,194.7 60.0,197.0 C 58.8,199.3 60.0,199.0 61.0,199.0 C 62.0,199.0 65.0,197.0 66.0,197.0 C 67.0,197.0 69.2,196.0 67.0,199.0 C 64.8,202.0 55.0,212.0 53.0,215.0 C 51.0,218.0 53.5,217.2 55.0,217.0 C 56.5,216.8 60.5,214.3 62.0,214.0 C 63.5,213.7 66.0,212.5 64.0,215.0 C 62.0,217.5 53.5,225.0 50.0,229.0 C 46.5,233.0 44.2,236.8 43.0,239.0 C 41.8,241.2 37.8,243.8 43.0,242.0 C 48.2,240.2 68.7,230.0 74.0,228.0 C 79.3,226.0 77.7,225.7 75.0,230.0 C 72.3,234.3 62.7,246.3 58.0,254.0 C 53.3,261.7 49.0,271.3 47.0,276.0 C 45.0,280.7 45.8,281.0 46.0,282.0 C 46.2,283.0 44.0,285.5 48.0,282.0 C 52.0,278.5 63.3,268.3 70.0,261.0 C 76.7,253.7 83.7,242.2 88.0,238.0 C 92.3,233.8 92.3,237.8 96.0,236.0 C 99.7,234.2 107.3,228.3 110.0,227.0 C 112.7,225.7 111.5,223.7 112.0,228.0 C 112.5,232.3 112.2,247.5 113.0,253.0 C 113.8,258.5 115.8,259.7 117.0,261.0 C 118.2,262.3 120.0,262.0 120.0,261.0 C 120.0,260.0 117.3,256.2 117.0,255.0 C 116.7,253.8 115.8,253.2 118.0,254.0 C 120.2,254.8 128.0,259.5 130.0,260.0 C 132.0,260.5 131.5,258.3 130.0,257.0 C 128.5,255.7 121.5,253.2 121.0,252.0 C 120.5,250.8 127.3,250.5 127.0,250.0 C 126.7,249.5 120.8,250.0 119.0,249.0 C 117.2,248.0 116.8,248.2 116.0,244.0 C 115.2,239.8 113.5,228.2 114.0,224.0 C 114.5,219.8 117.5,218.0 119.0,219.0 C 120.5,220.0 122.3,226.5 123.0,230.0 C 123.7,233.5 122.7,237.3 123.0,240.0 C 123.3,242.7 122.5,243.7 125.0,246.0 C 127.5,248.3 135.3,252.7 138.0,254.0 C 140.7,255.3 140.5,254.3 141.0,254.0 C 141.5,253.7 141.8,252.8 141.0,252.0 C 140.2,251.2 135.8,249.7 136.0,249.0 C 136.2,248.3 141.0,248.5 142.0,248.0 C 143.0,247.5 143.7,246.7 142.0,246.0 C 140.3,245.3 133.0,244.5 132.0,244.0 C 131.0,243.5 135.2,243.7 136.0,243.0 C 136.8,242.3 137.8,240.2 137.0,240.0 C 136.2,239.8 132.8,241.8 131.0,242.0 C 129.2,242.2 127.5,245.3 126.0,241.0 C 124.5,236.7 121.2,222.0 122.0,216.0 C 122.8,210.0 129.0,208.5 131.0,205.0 C 133.0,201.5 133.5,200.7 134.0,195.0 C 134.5,189.3 133.0,177.5 134.0,171.0 C 135.0,164.5 139.0,163.7 140.0,156.0 C 141.0,148.3 139.0,139.7 140.0,125.0 C 141.0,110.3 144.5,78.2 146.0,68.0 C 147.5,57.8 147.2,65.2 149.0,64.0 C 150.8,62.8 154.8,63.7 157.0,61.0 C 159.2,58.3 159.7,51.7 162.0,48.0 C 164.3,44.3 169.2,41.5 171.0,39.0 C 172.8,36.5 176.7,33.2 173.0,33.0 Z M 151.0,40.0 C 154.8,40.5 158.3,46.8 159.0,50.0 C 159.7,53.2 157.3,56.7 155.0,59.0 C 152.7,61.3 147.0,62.0 145.0,64.0 C 143.0,66.0 144.2,61.3 143.0,71.0 C 141.8,80.7 138.8,108.3 138.0,122.0 C 137.2,135.7 139.2,144.5 138.0,153.0 C 136.8,161.5 132.0,166.7 131.0,173.0 C 130.0,179.3 132.3,186.0 132.0,191.0 C 131.7,196.0 132.8,197.3 129.0,203.0 C 125.2,208.7 115.0,219.7 109.0,225.0 C 103.0,230.3 96.8,233.2 93.0,235.0 C 89.2,236.8 89.8,232.3 86.0,236.0 C 82.2,239.7 75.5,250.8 70.0,257.0 C 64.5,263.2 56.0,270.5 53.0,273.0 C 50.0,275.5 50.8,274.8 52.0,272.0 C 53.2,269.2 55.3,263.5 60.0,256.0 C 64.7,248.5 77.0,232.3 80.0,227.0 C 83.0,221.7 82.2,222.7 78.0,224.0 C 73.8,225.3 59.8,233.0 55.0,235.0 C 50.2,237.0 48.8,237.5 49.0,236.0 C 49.2,234.5 52.2,230.2 56.0,226.0 C 59.8,221.8 69.5,214.0 72.0,211.0 C 74.5,208.0 72.7,207.8 71.0,208.0 C 69.3,208.2 63.8,211.5 62.0,212.0 C 60.2,212.5 58.3,213.5 60.0,211.0 C 61.7,208.5 70.0,200.0 72.0,197.0 C 74.0,194.0 73.0,193.5 72.0,193.0 C 71.0,192.5 66.2,196.2 66.0,194.0 C 65.8,191.8 68.5,184.5 71.0,180.0 C 73.5,175.5 74.7,171.5 81.0,167.0 C 87.3,162.5 102.3,157.3 109.0,153.0 C 115.7,148.7 118.3,144.5 121.0,141.0 C 123.7,137.5 124.0,135.3 125.0,132.0 C 126.0,128.7 126.7,129.8 127.0,121.0 C 127.3,112.2 126.7,88.2 127.0,79.0 C 127.3,69.8 127.5,71.3 129.0,66.0 C 130.5,60.7 132.3,51.3 136.0,47.0 C 139.7,42.7 147.2,39.5 151.0,40.0 Z" fill="#ffffff" fill-rule="evenodd"/>
  <path d="M 140.0,49.0 C 139.7,49.7 141.2,52.7 142.0,53.0 C 142.8,53.3 144.7,51.7 145.0,51.0 C 145.3,50.3 144.8,49.3 144.0,49.0 C 143.2,48.7 140.3,48.3 140.0,49.0 Z" fill="#ffffff"/>
</svg>