<svg xmlns="http://www.w3.org/2000/svg"
     viewBox="0 0 1000 333"
     preserveAspectRatio="none">
  <path fill="white" d="M0 16 L31 12 L58 24 L86 5 L112 18 L139 9 L164 27 L191 14 L219 21
L247 7 L274 17 L301 11 L329 25 L356 6 L384 19 L412 9 L439 29 L467 13
L494 20 L522 4 L550 16 L578 10 L605 26 L633 8 L660 18 L688 12 L716 31
L744 11 L772 20 L800 6 L828 17 L856 9 L884 24 L912 13 L940 29 L968 8 L1000 19
L1000 316 L969 324 L941 307 L913 328 L885 314 L857 321 L829 302 L801 318
L773 309 L745 330 L717 313 L689 321 L661 304 L633 325 L605 311 L577 318
L549 299 L521 323 L493 309 L465 328 L437 312 L409 320 L381 301 L353 325
L325 309 L297 321 L269 303 L241 327 L213 313 L185 322 L157 300 L129 319
L101 307 L73 329 L45 310 L18 322 L0 312 Z"/>
</svg>
